<svg xmlns="http://www.w3.org/2000/svg" width="256" height="256" viewBox="0 0 256 256"><circle cx="138.3" cy="149.2" r="3.4" fill="none" stroke="#231f20" stroke-linecap="round" stroke-linejoin="round" stroke-width="1.05"/><path fill="#231f20" stroke="#231f20" stroke-linecap="round" stroke-linejoin="round" stroke-width="1.05" d="M67.764 161.074l5.003-3.662 37.928 51.823-5.003 3.662zm38.63 57.368l5.022-3.658 23.287 31.97-5.022 3.659zm31.116-67.065l5.632 2.591-26.835 58.345-5.633-2.591z"/><path fill="#231f20" d="M237 126.4a7 7 0 0 1-7.3 6.8l-63.8-2.2c-13.5-.5-12.9 27.6-26.8 28.9-9 .8-15.2-14.9-30.7-15-13.9 0-26.4 5.4-34.5 15.1a7.5 7.5 0 0 1-5.6 2.5l-25.4-.9a6.8 6.8 0 0 1-6.2-4.6A103.1 103.1 0 0 1 139.4 19.8c44.7 2.4 81.7 33.7 93.6 75.3h-1.1a7.9 7.9 0 1 0-.5 15.7 7.2 7.2 0 0 0 4.7-1.4c.4 3.3.7 6.5.9 9.8s.1 4.9 0 7.2z"/><path fill="#fff" d="M171.6 35a5.8 5.8 0 1 1-8.4 7.9c-2.2-2.3-6.7-10.9-4.4-13.1s10.6 2.9 12.8 5.2zm-60.9 6a5.8 5.8 0 1 1-7.9-8.4c2.3-2.2 10.9-6.7 13.1-4.3S113 38.9 110.7 41zm32.9 4.6a5.8 5.8 0 1 1-11.5-.4c.1-3.2 3-12.5 6.2-12.3s5.4 9.5 5.3 12.7zm91.6 63.7a6.9 6.9 0 0 1-4.7 1.4 7.9 7.9 0 1 1 .6-15.7h1.1a96.8 96.8 0 0 1 3 14.3z"/><path fill="#fff" stroke="#231f20" stroke-miterlimit="10" stroke-width="3" d="M117.8 219.4l-14.6-.5v-2.8a7.3 7.3 0 0 1 7.5-7.1 7.4 7.4 0 0 1 7.1 7.6z"/></svg>