<svg xmlns="http://www.w3.org/2000/svg" width="256" height="256" viewBox="0 0 256 256"><path fill="#231f20" d="M42.2 104c3.4 2.5 14 6.9 42.9 1a3.6 3.6 0 0 1 4.1 1.9l11.2 22.4a3.6 3.6 0 0 1-3.4 5.2c-14.2-.1-49.8-.5-67.2-.1a3.7 3.7 0 0 1-3.7-2.7c-1.4-5.5-2.5-17.9 11.6-27.8a3.9 3.9 0 0 1 4.5.1zm99.4-13.3l3.1-1.7a4.7 4.7 0 0 1 4.7.2l17.1 12.3a4.6 4.6 0 0 0 3.2.7c3.6-.5 11.2-3 12.5-14a4.2 4.2 0 0 0-1.9-4.1L160.8 71a4.1 4.1 0 0 1-1.2-5.8l5-7.7a4.3 4.3 0 0 1 4.6-1.8c9.2 2.1 37.4 7.6 54.3-2.6a4.3 4.3 0 0 1 3.5-.5c1.8.5 4.1 2 4 5.9 0 0 .1 14.2 5.3 23s4.8 27.7 1.3 48.3a4.4 4.4 0 0 1-4.3 3.5c-9.6 0-37.6.2-70.7.7a4.2 4.2 0 0 1-4-2.3l-18.7-35.3a4.2 4.2 0 0 1 1.7-5.7zm-33.1 9.5l11.4-1.8a5.2 5.2 0 0 1 5.3 1.7l17.3 29.3c1.4 2.2-.8 4.7-4 4.7h-13.9a4.7 4.7 0 0 1-4.1-1.9l-14.7-27.4c-1.1-1.9.2-4 2.7-4.6z"/><path fill="#231f20" d="M127 56.6l-3.9 4.6a2.2 2.2 0 0 0 .3 3.2l42.2 31a4.9 4.9 0 0 0 2.2 1c2.5.3 7.7.2 8.5-7.3a2.3 2.3 0 0 0-1.1-2L130 56.2a2.4 2.4 0 0 0-3 .4zm4.6-3.9L153.4 67l10.8-16.3c2-1.8-1.3-6.2-3.2-8l-10-7.3c-1.9-1.8-6.8-1.8-8.6.1zM20.642 163.103l21.68 18.19a2.7 2.7 0 0 1 .332 3.805L30.12 200.036a1.6 1.6 0 0 1-2.254.197l-23.441-19.67a1.5 1.5 0 0 1-.185-2.113l12.599-15.014a2.7 2.7 0 0 1 3.803-.333zM29.7 147.3h204.2a4.4 4.4 0 0 1 4.4 4.4v6.1a4.4 4.4 0 0 1-6.5 3.8c-6.5-3.4-21.3-6.5-34.4 1l-.7.4-13.4 4.3a4.4 4.4 0 0 1-4.4-1l-.5-.5a4.4 4.4 0 0 0-3.1-1.3h-46a4.2 4.2 0 0 0-3.4 1.8v.2a4.4 4.4 0 0 1-3.3 1.8l-12.1.5a4.9 4.9 0 0 1-3.3-1.3l-5-5a3.4 3.4 0 0 0-1.6-1c-4.1-1.5-23.3-6.3-36.3 5.4a4.2 4.2 0 0 1-3.1 1.2c-5.9-.2-25-1.5-34-8a4.7 4.7 0 0 1-1.8-3.6v-4.8a4.4 4.4 0 0 1 4.3-4.4z"/><path fill="#231f20" d="M30.7 164.6l2.3-3.4a3.5 3.5 0 0 1 4.4-1.3l3 1.3a3.6 3.6 0 0 1 1.5 5.4l-3 4.2a3.5 3.5 0 0 1-5.2.6l-2.4-2a3.6 3.6 0 0 1-.6-4.8zm84.9-91.9l12.1 12.8a2.6 2.6 0 0 0 3 .5l2.9-1.5a2.5 2.5 0 0 0 .5-4.1l-14-12a2.6 2.6 0 0 0-3.3-.1l-1 .9a2.3 2.3 0 0 0-.2 3.5zm-10.9 8l8 11a2.6 2.6 0 0 0 2.8 1l2.8-1a2.4 2.4 0 0 0 1.1-3.9L109.8 77a2.7 2.7 0 0 0-3.3-.5l-1.1.7a2.5 2.5 0 0 0-.7 3.5zm-12 6.3L98 97.1a2.1 2.1 0 0 0 2.6 1l3.3-1a2.2 2.2 0 0 0 1.1-3.3L98.4 84a2.2 2.2 0 0 0-2.7-.8l-2 .9a2.1 2.1 0 0 0-1 2.9zm-12.9 4.5l3.1 8.3a2.5 2.5 0 0 0 2.7 1.5l2.9-.5a2.4 2.4 0 0 0 1.7-3.4l-4.3-8.3a2.4 2.4 0 0 0-2.8-1.2l-1.8.5a2.3 2.3 0 0 0-1.5 3.1zm-12.8 3l1.4 6.8a2.5 2.5 0 0 0 2.6 1.9l2.8-.3a2.3 2.3 0 0 0 2-3.1l-2.3-7a2.5 2.5 0 0 0-2.9-1.5l-1.9.5a2.3 2.3 0 0 0-1.7 2.7zM53.3 98l.7 3.2a2.3 2.3 0 0 0 2.2 1.8l2.6.2a2.3 2.3 0 0 0 2.4-3l-1.3-4a2.4 2.4 0 0 0-2.9-1.5l-2.1.6a2.3 2.3 0 0 0-1.6 2.7z"/><rect width="213" height="6.32" x="25.1" y="137.7" fill="#231f20" rx=".6" ry=".6"/><circle cx="85" cy="195.8" r="30.5" fill="#231f20"/><circle cx="85" cy="195.8" r="16.4" fill="#231f20"/><circle cx="85" cy="195.8" r="9.3" fill="#fff" stroke="#231f20" stroke-miterlimit="10" stroke-width=".25"/><circle cx="85" cy="195.8" r="4.7" fill="#231f20" stroke="#fff" stroke-miterlimit="10" stroke-width=".25"/><rect width="6.7" height="4.3" x="81.9" y="181.3" fill="#fff" rx="1.9" ry="1.9"/><rect width="6.7" height="4.3" x="81.9" y="206.6" fill="#fff" rx="1.9" ry="1.9"/><rect width="6.7" height="4.3" x="94.7" y="194" fill="#fff" rx="1.9" ry="1.9" transform="rotate(-90 98.1 196.1)"/><rect width="6.7" height="4.3" x="69" y="194" fill="#fff" rx="1.9" ry="1.9" transform="rotate(-90 72.35 196.15)"/><rect width="6.7" height="4.3" x="72.7" y="184.8" fill="#fff" rx="1.9" ry="1.9" transform="rotate(-45 76.021 186.911)"/><rect width="6.7" height="4.3" x="90.9" y="203" fill="#fff" rx="1.9" ry="1.9" transform="rotate(-45 94.24 205.064)"/><rect width="6.7" height="4.3" x="90.6" y="184.3" fill="#fff" rx="1.9" ry="1.9" transform="rotate(-135 93.924 186.447)"/><rect width="6.7" height="4.3" x="72.7" y="202.8" fill="#fff" rx="1.9" ry="1.9" transform="rotate(-135 76.038 204.927)"/><circle cx="84.7" cy="196.2" r="20.4" fill="none" stroke="#fff" stroke-miterlimit="10" stroke-width="2"/><circle cx="213.5" cy="195.8" r="30.5" fill="#231f20"/><circle cx="213.5" cy="195.8" r="16.4" fill="#231f20"/><circle cx="213.5" cy="195.8" r="9.3" fill="#fff" stroke="#231f20" stroke-miterlimit="10" stroke-width=".25"/><circle cx="213.5" cy="195.8" r="4.7" fill="#231f20" stroke="#fff" stroke-miterlimit="10" stroke-width=".25"/><rect width="6.7" height="4.3" x="210.4" y="181.3" fill="#fff" rx="1.9" ry="1.9"/><rect width="6.7" height="4.3" x="210.4" y="206.6" fill="#fff" rx="1.9" ry="1.9"/><rect width="6.7" height="4.3" x="223.2" y="194" fill="#fff" rx="1.9" ry="1.9" transform="rotate(-90 226.55 196.15)"/><rect width="6.7" height="4.3" x="197.4" y="194" fill="#fff" rx="1.9" ry="1.9" transform="rotate(-90 200.8 196.1)"/><rect width="6.7" height="4.3" x="201.2" y="184.8" fill="#fff" rx="1.9" ry="1.9" transform="rotate(-45 204.547 186.974)"/><rect width="6.7" height="4.3" x="219.3" y="203" fill="#fff" rx="1.9" ry="1.9" transform="rotate(-45 222.646 205.077)"/><rect width="6.7" height="4.3" x="219" y="184.3" fill="#fff" rx="1.9" ry="1.9" transform="rotate(-135 222.43 186.408)"/><rect width="6.7" height="4.3" x="201.2" y="202.8" fill="#fff" rx="1.9" ry="1.9" transform="rotate(-135 204.494 204.909)"/><circle cx="213.2" cy="196.2" r="20.4" fill="none" stroke="#fff" stroke-miterlimit="10" stroke-width="2"/></svg>