<svg xmlns="http://www.w3.org/2000/svg" width="256" height="256" viewBox="0 0 256 256"><rect width="51.6" height="37.48" x="16.6" y="91.2" fill="#231f20" rx="2.1" ry="2.1" transform="rotate(5 42.641 109.433)"/><rect width="51.6" height="41.26" x="165.9" y="22.2" fill="#231f20" rx="2.1" ry="2.1" transform="rotate(125 191.747 42.813)"/><path fill="#231f20" d="M216.8 217.3a34.7 34.7 0 0 1-4.7 15.7l-7.4-21.6-26.5-5.1-17.6 20.4 7.6 22a35.9 35.9 0 1 1 48.6-31.4z"/><path fill="#231f20" d="M152.173 178.697l22.453-9.027 7.221 17.963-22.453 9.026z"/><path fill="#231f20" d="M63.3 100.3l47.1 4.7s7.5-16.1 33.9-16.1l24.6-37.7 22.9 16-25.5 31.4s-10.2 7-3.7 24.2 17.2 49.5 17.2 49.5l-30.7 11.8-26.8-47.3s-3.8-12.4-20.5-8.6l-40.9-2.9z"/><circle cx="137.7" cy="118.2" r="7.9" fill="#fff"/></svg>