<svg xmlns="http://www.w3.org/2000/svg" width="256" height="256" viewBox="0 0 256 256"><path fill="#231f20" d="M247.9 128A121.3 121.3 0 1 1 126.7 6.8 121.2 121.2 0 0 1 247.9 128zm-54.1-27.5c-.6-3.7-1-7.4-1.9-11.1-4-16.2-16.5-26.6-33.1-27.8-1.3-.1-2.6-.4-3.9-.6H98.5c-4 .7-8.2 1.1-12.1 2.2-15 4.1-24.9 16.6-26.1 32.4-.1 1.5-.5 2.9-.7 4.3v56.3c.9 4.4 1.3 8.8 2.6 13 4.5 14.7 17 24.3 32.4 25.2 1.5.1 3.1.5 4.6.7h55c3.8-.6 7.7-1.1 11.5-2a35.3 35.3 0 0 0 27.4-33 39.5 39.5 0 0 1 .7-4.6z"/><path fill="#231f20" d="M126.6 105.8a22.2 22.2 0 1 0 22.3 22.3 22.1 22.1 0 0 0-22.3-22.3z"/><path fill="#231f20" d="M155.9 73.7c-19.5-.3-39-.3-58.6 0-13.7.3-22.6 7.9-24.3 21.5-1.4 10.7-.9 52.1-.6 61.9.4 15.1 10.1 25 25.2 25.2 19.4.3 38.8.3 58.3 0 14.9-.2 24.8-10 25.1-24.9.3-19.6.3-39.1 0-58.7-.3-14.9-10.1-24.7-25.1-25zm-29.1 88.8a34.5 34.5 0 1 1 34.4-34.6 34.5 34.5 0 0 1-34.4 34.6zm35.6-62.1a8.3 8.3 0 0 1-8.1-8.4 8.2 8.2 0 0 1 16.3.3 8.3 8.3 0 0 1-8.2 8.1z"/></svg>