<svg xmlns="http://www.w3.org/2000/svg" width="256" height="256" viewBox="0 0 256 256"><path fill="#231f20" d="M248.4 126.5a121.4 121.4 0 0 1-121.3 121.3h-2.6a121.3 121.3 0 1 1 123.7-127.3c.1 2 .2 4 .2 6zm-40.3-39.3l-18.5 6 1.3-.7a1.8 1.8 0 0 0 .7-.5 6.9 6.9 0 0 0 1.3-1.1c5.7-5.3 9.9-16.7 10.1-17.4l-16.3 8.6c-13.8-16.9-25.8-15.8-40-9.5-16.3 7.3-14.1 31.2-14.1 31.2-53.1-1.4-66.4-25.2-66.4-25.2-15.2 24.6 9.6 40.2 9.6 40.2-3.8 0-14.2-4.5-14.2-4.5.6 13.7 11.3 23 20.7 28.6 1.4.9 2.8 1.6 4.1 2.3l1.2.6 1.3.6c2 1 3.7 1.7 5 2.2l.8.3 1.7.6-.6.4-.5.2-.6.3-1 .4a18.6 18.6 0 0 1-3.4.6c-7.9.7-18.4-2.3-18.4-2.3a26.9 26.9 0 0 0 13.5 16.2l1.5.7 1.3.7 1.6.6a50.9 50.9 0 0 0 5.3 1.6l3.1.7h.1l1.2.2h1.6a10.9 10.9 0 0 1-1.7 1.3l-1.8 1.2-3.6 2.3c-17.8 9.7-36.9 7.5-36.9 7.5s1.7.9 2.6 1.2l6.9 3 2.8 1.1 3.9 1.5 2.8.9 5.8 1.9 2 .5 5.9 1.4 2.3.5 3 .5 2.9.4 2.5.3 3 .2c25.2 1.8 45.6-7.6 64.4-24.6 26.9-24.5 25.1-67 25.1-67a7.8 7.8 0 0 0 2.1-1.2l1.1-.9c4.9-4.4 11.4-13.9 11.8-14.5h.1z"/></svg>