<svg xmlns="http://www.w3.org/2000/svg" width="256" height="256" viewBox="0 0 256 256"><circle cx="128" cy="128.6" r="121.2" fill="#231f20"/><circle cx="128" cy="128.6" r="65.1" fill="#231f20"/><circle cx="128" cy="128.6" r="36.8" fill="#fff" stroke="#231f20" stroke-miterlimit="10" stroke-width=".25"/><circle cx="128" cy="128.6" r="18.5" fill="#231f20" stroke="#fff" stroke-miterlimit="10" stroke-width=".25"/><rect width="26.7" height="17.11" x="115.8" y="70.7" fill="#fff" rx="5.2" ry="5.2"/><rect width="26.7" height="17.11" x="115.8" y="171.4" fill="#fff" rx="5.2" ry="5.2"/><rect width="26.7" height="17.11" x="166.6" y="121.1" fill="#fff" rx="5.2" ry="5.2" transform="rotate(-90 180 129.7)"/><rect width="26.7" height="17.11" x="64.3" y="121.1" fill="#fff" rx="5.2" ry="5.2" transform="rotate(-90 77.6 129.7)"/><rect width="26.7" height="17.11" x="79" y="84.6" fill="#fff" rx="5.2" ry="5.2" transform="rotate(-45 92.378 93.136)"/><rect width="26.7" height="17.11" x="151.3" y="156.8" fill="#fff" rx="5.2" ry="5.2" transform="rotate(-45 164.702 165.378)"/><rect width="26.7" height="17.11" x="150.2" y="82.6" fill="#fff" rx="5.2" ry="5.2" transform="rotate(-135 163.517 91.134)"/><rect width="26.7" height="17.11" x="79" y="156.1" fill="#fff" rx="5.2" ry="5.2" transform="rotate(-135 92.362 164.717)"/><circle cx="126.9" cy="130.2" r="71.5" fill="none" stroke="#fff" stroke-miterlimit="10" stroke-width="4"/></svg>