<svg xmlns="http://www.w3.org/2000/svg"><symbol id="arrow-down" viewBox="0 0 256 256"><path fill="none" stroke="#000" stroke-linecap="round" stroke-linejoin="round" stroke-width="20" d="M25.3 102.9l104.2 104.2 101.2-104.2"/></symbol><symbol id="arrow-left" viewBox="0 0 256 256"><path fill="none" stroke="#000" stroke-linecap="round" stroke-linejoin="round" stroke-width="20" d="M162.2 25.3L58 129.5l104.2 101.2"/></symbol><symbol id="arrow-right" viewBox="0 0 256 256"><path fill="none" stroke="#000" stroke-linecap="round" stroke-linejoin="round" stroke-width="20" d="M74.2 230.7l104.3-104.2L74.2 25.3"/></symbol><symbol id="artboard-54" viewBox="0 0 207.8 20"><path fill="none" stroke="#000" stroke-linecap="round" stroke-miterlimit="10" stroke-width="20" d="M10 10h187.8"/></symbol><symbol id="cart" viewBox="0 0 256 256"><circle cx="94" cy="211.3" r="16.7" fill="#fff" stroke="#000" stroke-miterlimit="10" stroke-width="14"/><circle cx="178.6" cy="211.3" r="16.7" fill="#fff" stroke="#000" stroke-miterlimit="10" stroke-width="14"/><path d="M191.8 142.1h-121l-14-88h153l-18 88z"/><path fill="none" stroke="#000" stroke-linecap="round" stroke-linejoin="round" stroke-width="15" d="M17.6 25h35.7l21.8 148.7h118.2"/></symbol><symbol id="helmet" viewBox="0 0 256 256"><circle cx="138.3" cy="149.2" r="3.4" fill="none" stroke="#231f20" stroke-linecap="round" stroke-linejoin="round" stroke-width="1.05"/><path stroke="#000" stroke-linecap="round" stroke-linejoin="round" stroke-width="1.05" d="M67.764 161.074l5.003-3.662 37.928 51.823-5.003 3.662zm38.63 57.368l5.022-3.658 23.287 31.97-5.022 3.659zm31.116-67.065l5.632 2.591-26.835 58.345-5.633-2.591z"/><path d="M237 126.4a7 7 0 0 1-7.3 6.8l-63.8-2.2c-13.5-.5-12.9 27.6-26.8 28.9-9 .8-15.2-14.9-30.7-15-13.9 0-26.4 5.4-34.5 15.1a7.5 7.5 0 0 1-5.6 2.5l-25.4-.9a6.8 6.8 0 0 1-6.2-4.6A103.1 103.1 0 0 1 139.4 19.8c44.7 2.4 81.7 33.7 93.6 75.3h-1.1a7.9 7.9 0 1 0-.5 15.7 7.2 7.2 0 0 0 4.7-1.4c.4 3.3.7 6.5.9 9.8s.1 4.9 0 7.2z"/><path fill="#fff" d="M171.6 35a5.8 5.8 0 1 1-8.4 7.9c-2.2-2.3-6.7-10.9-4.4-13.1s10.6 2.9 12.8 5.2zm-60.9 6a5.8 5.8 0 1 1-7.9-8.4c2.3-2.2 10.9-6.7 13.1-4.3S113 38.9 110.7 41zm32.9 4.6a5.8 5.8 0 1 1-11.5-.4c.1-3.2 3-12.5 6.2-12.3s5.4 9.5 5.3 12.7zm91.6 63.7a6.9 6.9 0 0 1-4.7 1.4 7.9 7.9 0 1 1 .6-15.7h1.1a96.8 96.8 0 0 1 3 14.3z"/><path fill="#fff" stroke="#000" stroke-miterlimit="10" stroke-width="3" d="M117.8 219.4l-14.6-.5v-2.8a7.3 7.3 0 0 1 7.5-7.1 7.4 7.4 0 0 1 7.1 7.6z"/></symbol><symbol id="nav-close" viewBox="0 0 256 256"><path fill="#fff" stroke="#000" stroke-linecap="round" stroke-linejoin="round" stroke-width="20" d="M210.3 45.7L45.7 210.3m164.6 0L45.7 45.7"/></symbol><symbol id="nav-hambuger" viewBox="0 0 256 256"><path fill="none" stroke="#000" stroke-linecap="round" stroke-miterlimit="10" stroke-width="20" d="M35.2 72.7H223M35.2 126.5H223M35.2 180.3H223"/></symbol><symbol id="skate" viewBox="0 0 256 256"><path d="M42.2 104c3.4 2.5 14 6.9 42.9 1a3.6 3.6 0 0 1 4.1 1.9l11.2 22.4a3.6 3.6 0 0 1-3.4 5.2c-14.2-.1-49.8-.5-67.2-.1a3.7 3.7 0 0 1-3.7-2.7c-1.4-5.5-2.5-17.9 11.6-27.8a3.9 3.9 0 0 1 4.5.1zm99.4-13.3l3.1-1.7a4.7 4.7 0 0 1 4.7.2l17.1 12.3a4.6 4.6 0 0 0 3.2.7c3.6-.5 11.2-3 12.5-14a4.2 4.2 0 0 0-1.9-4.1L160.8 71a4.1 4.1 0 0 1-1.2-5.8l5-7.7a4.3 4.3 0 0 1 4.6-1.8c9.2 2.1 37.4 7.6 54.3-2.6a4.3 4.3 0 0 1 3.5-.5c1.8.5 4.1 2 4 5.9 0 0 .1 14.2 5.3 23s4.8 27.7 1.3 48.3a4.4 4.4 0 0 1-4.3 3.5c-9.6 0-37.6.2-70.7.7a4.2 4.2 0 0 1-4-2.3l-18.7-35.3a4.2 4.2 0 0 1 1.7-5.7zm-33.1 9.5l11.4-1.8a5.2 5.2 0 0 1 5.3 1.7l17.3 29.3c1.4 2.2-.8 4.7-4 4.7h-13.9a4.7 4.7 0 0 1-4.1-1.9l-14.7-27.4c-1.1-1.9.2-4 2.7-4.6z"/><path d="M127 56.6l-3.9 4.6a2.2 2.2 0 0 0 .3 3.2l42.2 31a4.9 4.9 0 0 0 2.2 1c2.5.3 7.7.2 8.5-7.3a2.3 2.3 0 0 0-1.1-2L130 56.2a2.4 2.4 0 0 0-3 .4zm4.6-3.9L153.4 67l10.8-16.3c2-1.8-1.3-6.2-3.2-8l-10-7.3c-1.9-1.8-6.8-1.8-8.6.1zM20.642 163.103l21.68 18.19a2.7 2.7 0 0 1 .332 3.805L30.12 200.036a1.6 1.6 0 0 1-2.254.197l-23.441-19.67a1.5 1.5 0 0 1-.185-2.113l12.599-15.014a2.7 2.7 0 0 1 3.803-.333zM29.7 147.3h204.2a4.4 4.4 0 0 1 4.4 4.4v6.1a4.4 4.4 0 0 1-6.5 3.8c-6.5-3.4-21.3-6.5-34.4 1l-.7.4-13.4 4.3a4.4 4.4 0 0 1-4.4-1l-.5-.5a4.4 4.4 0 0 0-3.1-1.3h-46a4.2 4.2 0 0 0-3.4 1.8v.2a4.4 4.4 0 0 1-3.3 1.8l-12.1.5a4.9 4.9 0 0 1-3.3-1.3l-5-5a3.4 3.4 0 0 0-1.6-1c-4.1-1.5-23.3-6.3-36.3 5.4a4.2 4.2 0 0 1-3.1 1.2c-5.9-.2-25-1.5-34-8a4.7 4.7 0 0 1-1.8-3.6v-4.8a4.4 4.4 0 0 1 4.3-4.4z"/><path d="M30.7 164.6l2.3-3.4a3.5 3.5 0 0 1 4.4-1.3l3 1.3a3.6 3.6 0 0 1 1.5 5.4l-3 4.2a3.5 3.5 0 0 1-5.2.6l-2.4-2a3.6 3.6 0 0 1-.6-4.8zm84.9-91.9l12.1 12.8a2.6 2.6 0 0 0 3 .5l2.9-1.5a2.5 2.5 0 0 0 .5-4.1l-14-12a2.6 2.6 0 0 0-3.3-.1l-1 .9a2.3 2.3 0 0 0-.2 3.5zm-10.9 8l8 11a2.6 2.6 0 0 0 2.8 1l2.8-1a2.4 2.4 0 0 0 1.1-3.9L109.8 77a2.7 2.7 0 0 0-3.3-.5l-1.1.7a2.5 2.5 0 0 0-.7 3.5zm-12 6.3L98 97.1a2.1 2.1 0 0 0 2.6 1l3.3-1a2.2 2.2 0 0 0 1.1-3.3L98.4 84a2.2 2.2 0 0 0-2.7-.8l-2 .9a2.1 2.1 0 0 0-1 2.9zm-12.9 4.5l3.1 8.3a2.5 2.5 0 0 0 2.7 1.5l2.9-.5a2.4 2.4 0 0 0 1.7-3.4l-4.3-8.3a2.4 2.4 0 0 0-2.8-1.2l-1.8.5a2.3 2.3 0 0 0-1.5 3.1zm-12.8 3l1.4 6.8a2.5 2.5 0 0 0 2.6 1.9l2.8-.3a2.3 2.3 0 0 0 2-3.1l-2.3-7a2.5 2.5 0 0 0-2.9-1.5l-1.9.5a2.3 2.3 0 0 0-1.7 2.7zM53.3 98l.7 3.2a2.3 2.3 0 0 0 2.2 1.8l2.6.2a2.3 2.3 0 0 0 2.4-3l-1.3-4a2.4 2.4 0 0 0-2.9-1.5l-2.1.6a2.3 2.3 0 0 0-1.6 2.7z"/><rect width="213" height="6.32" x="25.1" y="137.7" rx=".6" ry=".6"/><path fill="#231f20" d="M84.5 168a30.4 30.4 0 1 0 30.3 30.4A30.4 30.4 0 0 0 84.5 168zm0 51.5a21.2 21.2 0 1 1 21.1-21.1 21.2 21.2 0 0 1-21.1 21.1z"/><path d="M84.2 180.8a18 18 0 1 0 17.9 18 18 18 0 0 0-17.9-18zm6.2 6.4l1.2-1.2a1.3 1.3 0 0 1 1.8 0l2.9 2.9a1.4 1.4 0 0 1 0 1.9l-1.2 1.1a1.3 1.3 0 0 1-1.8 0l-2.9-2.8a1.4 1.4 0 0 1 0-1.9zm3.3 11.2a9.3 9.3 0 0 1-18.5 0 9.3 9.3 0 1 1 18.5 0zm-12.3-13.3a1.3 1.3 0 0 1 1.3-1.3h4.1a1.3 1.3 0 0 1 1.3 1.3v1.7a1.3 1.3 0 0 1-1.3 1.3h-4.1a1.3 1.3 0 0 1-1.3-1.3zm-8.8 4.3l2.9-2.9a1.3 1.3 0 0 1 1.8 0l1.2 1.2a1.3 1.3 0 0 1 0 1.8l-2.9 2.9a1.3 1.3 0 0 1-1.8 0l-1.2-1.2a1.3 1.3 0 0 1 0-1.8zM71 202a1.3 1.3 0 0 1-1.3-1.3v-4.1a1.3 1.3 0 0 1 1.3-1.3h1.7a1.3 1.3 0 0 1 1.3 1.3v4.1a1.3 1.3 0 0 1-1.3 1.3zm7.5 7.2l-1.2 1.2a1.3 1.3 0 0 1-1.8 0l-2.9-2.9a1.4 1.4 0 0 1 0-1.9l1.2-1.2a1.3 1.3 0 0 1 1.8 0l2.9 2.9a1.4 1.4 0 0 1 0 1.9zm9.6 2.9a1.3 1.3 0 0 1-1.3 1.3h-4.1a1.3 1.3 0 0 1-1.3-1.3v-1.7a1.3 1.3 0 0 1 1.3-1.3h4.1a1.3 1.3 0 0 1 1.3 1.3zm8.5-4.5l-2.9 2.9a1.3 1.3 0 0 1-1.8 0l-1.2-1.2a1.3 1.3 0 0 1 0-1.8l2.9-2.9a1.3 1.3 0 0 1 1.8 0l1.2 1.2a1.3 1.3 0 0 1 0 1.8zm1.7-5.6h-1.6a1.3 1.3 0 0 1-1.3-1.3v-4.1a1.3 1.3 0 0 1 1.3-1.3h1.6a1.3 1.3 0 0 1 1.3 1.3v4.1a1.3 1.3 0 0 1-1.3 1.3z"/><circle cx="84.5" cy="198.4" r="3.6"/><path fill="#231f20" d="M209.8 168a30.4 30.4 0 1 0 30.3 30.4 30.4 30.4 0 0 0-30.3-30.4zm0 51.5a21.2 21.2 0 1 1 21.1-21.1 21.2 21.2 0 0 1-21.1 21.1z"/><path d="M209.5 180.8a18 18 0 1 0 17.9 18 18 18 0 0 0-17.9-18zm6.2 6.4l1.2-1.2a1.3 1.3 0 0 1 1.8 0l2.9 2.9a1.4 1.4 0 0 1 0 1.9l-1.2 1.1a1.3 1.3 0 0 1-1.8 0l-2.9-2.8a1.4 1.4 0 0 1 0-1.9zm3.3 11.2a9.3 9.3 0 0 1-18.5 0 9.3 9.3 0 1 1 18.5 0zm-12.3-13.3a1.3 1.3 0 0 1 1.3-1.3h4.1a1.3 1.3 0 0 1 1.3 1.3v1.7a1.3 1.3 0 0 1-1.3 1.3H208a1.3 1.3 0 0 1-1.3-1.3zm-8.8 4.3l2.9-2.9a1.3 1.3 0 0 1 1.8 0l1.2 1.2a1.3 1.3 0 0 1 0 1.8l-2.9 2.9a1.3 1.3 0 0 1-1.8 0l-1.2-1.2a1.3 1.3 0 0 1 0-1.8zm-1.6 12.6a1.3 1.3 0 0 1-1.3-1.3v-4.1a1.3 1.3 0 0 1 1.3-1.3h1.7a1.3 1.3 0 0 1 1.3 1.3v4.1a1.3 1.3 0 0 1-1.3 1.3zm7.5 7.2l-1.2 1.2a1.3 1.3 0 0 1-1.8 0l-2.9-2.9a1.4 1.4 0 0 1 0-1.9l1.2-1.2a1.3 1.3 0 0 1 1.8 0l2.9 2.9a1.4 1.4 0 0 1 0 1.9zm9.6 2.9a1.3 1.3 0 0 1-1.3 1.3H208a1.3 1.3 0 0 1-1.3-1.3v-1.7a1.3 1.3 0 0 1 1.3-1.3h4.1a1.3 1.3 0 0 1 1.3 1.3zm8.5-4.5l-2.9 2.9a1.3 1.3 0 0 1-1.8 0l-1.2-1.2a1.3 1.3 0 0 1 0-1.8l2.9-2.9a1.3 1.3 0 0 1 1.8 0l1.2 1.2a1.3 1.3 0 0 1 0 1.8zm1.7-5.6h-1.7a1.3 1.3 0 0 1-1.3-1.3v-4.1a1.3 1.3 0 0 1 1.3-1.3h1.7a1.3 1.3 0 0 1 1.3 1.3v4.1a1.3 1.3 0 0 1-1.3 1.3z"/><circle cx="209.8" cy="198.4" r="3.6"/></symbol><symbol id="skatetool" viewBox="0 0 256 256"><rect width="51.6" height="37.48" x="16.6" y="91.2" rx="2.1" ry="2.1" transform="rotate(5 42.641 109.433)"/><rect width="51.6" height="41.26" x="165.9" y="22.2" rx="2.1" ry="2.1" transform="rotate(125 191.747 42.813)"/><path d="M216.8 217.3a34.7 34.7 0 0 1-4.7 15.7l-7.4-21.6-26.5-5.1-17.6 20.4 7.6 22a35.9 35.9 0 1 1 48.6-31.4z"/><path d="M152.173 178.697l22.453-9.027 7.221 17.963-22.453 9.026z"/><path d="M63.3 100.3l47.1 4.7s7.5-16.1 33.9-16.1l24.6-37.7 22.9 16-25.5 31.4s-10.2 7-3.7 24.2 17.2 49.5 17.2 49.5l-30.7 11.8-26.8-47.3s-3.8-12.4-20.5-8.6l-40.9-2.9z"/><circle cx="137.7" cy="118.2" r="7.9" fill="#fff"/></symbol><symbol id="socialmedia-facebook" viewBox="0 0 256 256"><path d="M249.3 128.1A121.3 121.3 0 0 1 128 249.3h-2.6A121.3 121.3 0 1 1 249.1 122c.1 2 .2 4 .2 6.1zm-98.8-50.6h16.9V53.1h-24.1c-24.2 0-31.2 19.5-31.2 31.8v22.8H88.6v27.6h23.5v67.6h27.6v-67.6h23l3.6-27.6h-26.6V88.1c0-7.1 5.7-10.5 10.8-10.6z"/></symbol><symbol id="socialmedia-instagram" viewBox="0 0 256 256"><path d="M126.7 6.8A121.3 121.3 0 1 0 247.9 128 121.3 121.3 0 0 0 126.7 6.8zm67.1 148.7a39.5 39.5 0 0 0-.7 4.6 35.3 35.3 0 0 1-27.4 33c-3.8.9-7.7 1.4-11.5 2h-55c-1.5-.2-3.1-.6-4.6-.7-15.4-.9-27.9-10.5-32.4-25.2-1.3-4.2-1.7-8.6-2.6-13V99.9c.2-1.4.6-2.8.7-4.3 1.2-15.8 11.1-28.3 26.1-32.4 3.9-1.1 8.1-1.5 12.1-2.2h56.4c1.3.2 2.6.5 3.9.6 16.6 1.2 29.1 11.6 33.1 27.8.9 3.7 1.2 7.4 1.9 11.1z"/><path d="M181 98.7c-.3-14.9-10.1-24.7-25.1-25-19.5-.3-39.1-.3-58.6 0-13.7.3-22.6 7.9-24.3 21.5-1.4 10.7-.9 52.1-.6 61.9.4 15.1 10.1 25 25.2 25.2 19.4.3 38.8.3 58.3 0 14.9-.2 24.8-10 25.1-24.9.3-19.6.3-39.1 0-58.7zm-54.2 63.8a34.5 34.5 0 1 1 34.4-34.6 34.5 34.5 0 0 1-34.4 34.6zm35.6-62.1a8.3 8.3 0 0 1-8.1-8.4 8.2 8.2 0 0 1 16.3.3 8.3 8.3 0 0 1-8.2 8.1z"/><path d="M148.9 128.1a22.2 22.2 0 1 1-22.3-22.3 22 22 0 0 1 22.3 22.3z"/></symbol><symbol id="socialmedia-twitter" viewBox="0 0 256 256"><path d="M248.4 126.5a121.4 121.4 0 0 1-121.3 121.3h-2.6a121.3 121.3 0 1 1 123.7-127.3c.1 2 .2 4 .2 6zm-40.3-39.3l-18.5 6 1.3-.7a1.8 1.8 0 0 0 .7-.5 6.9 6.9 0 0 0 1.3-1.1c5.7-5.3 9.9-16.7 10.1-17.4l-16.3 8.6c-13.8-16.9-25.8-15.8-40-9.5-16.3 7.3-14.1 31.2-14.1 31.2-53.1-1.4-66.4-25.2-66.4-25.2-15.2 24.6 9.6 40.2 9.6 40.2-3.8 0-14.2-4.5-14.2-4.5.6 13.7 11.3 23 20.7 28.6 1.4.9 2.8 1.6 4.1 2.3l1.2.6 1.3.6c2 1 3.7 1.7 5 2.2l.8.3 1.7.6-.6.4-.5.2-.6.3-1 .4a18.6 18.6 0 0 1-3.4.6c-7.9.7-18.4-2.3-18.4-2.3a26.9 26.9 0 0 0 13.5 16.2l1.5.7 1.3.7 1.6.6a50.9 50.9 0 0 0 5.3 1.6l3.1.7h.1l1.2.2h1.6a10.9 10.9 0 0 1-1.7 1.3l-1.8 1.2-3.6 2.3c-17.8 9.7-36.9 7.5-36.9 7.5s1.7.9 2.6 1.2l6.9 3 2.8 1.1 3.9 1.5 2.8.9 5.8 1.9 2 .5 5.9 1.4 2.3.5 3 .5 2.9.4 2.5.3 3 .2c25.2 1.8 45.6-7.6 64.4-24.6 26.9-24.5 25.1-67 25.1-67a7.8 7.8 0 0 0 2.1-1.2l1.1-.9c4.9-4.4 11.4-13.9 11.8-14.5h.1z"/></symbol><symbol id="wheel" viewBox="0 0 256 256"><path fill="#231f20" d="M128 7.4a121.2 121.2 0 1 0 121.2 121.2A121.2 121.2 0 0 0 128 7.4zm0 205.5a84.4 84.4 0 1 1 84.3-84.3 84.3 84.3 0 0 1-84.3 84.3z"/><path d="M126.9 58.7a71.5 71.5 0 1 0 71.5 71.5 71.6 71.6 0 0 0-71.5-71.5zm24.8 25.4l4.7-4.8a5.3 5.3 0 0 1 7.4 0l11.5 11.6a5.2 5.2 0 0 1 0 7.3l-4.7 4.8a5.3 5.3 0 0 1-7.4 0l-11.5-11.6a5.2 5.2 0 0 1 0-7.3zm13.1 44.5A36.8 36.8 0 1 1 128 91.7a36.8 36.8 0 0 1 36.8 36.9zm-49-52.7a5.2 5.2 0 0 1 5.2-5.2h16.3a5.2 5.2 0 0 1 5.2 5.2v6.7a5.2 5.2 0 0 1-5.2 5.2H121a5.2 5.2 0 0 1-5.2-5.2zM80.6 92.8l11.5-11.5a5.2 5.2 0 0 1 7.3 0l4.8 4.8a5.2 5.2 0 0 1 0 7.3l-11.5 11.5a5.1 5.1 0 0 1-7.4 0l-4.7-4.7a5.1 5.1 0 0 1 0-7.4zm-6.3 50.3a5.2 5.2 0 0 1-5.2-5.2v-16.3a5.2 5.2 0 0 1 5.2-5.2H81a5.2 5.2 0 0 1 5.2 5.2v16.3a5.3 5.3 0 0 1-5.2 5.2zm29.9 28.7l-4.8 4.7a5.2 5.2 0 0 1-7.3 0L80.6 165a5.1 5.1 0 0 1 0-7.4l4.7-4.7a5.1 5.1 0 0 1 7.4 0l11.5 11.5a5.3 5.3 0 0 1 0 7.4zm38.3 11.5a5.2 5.2 0 0 1-5.2 5.2H121a5.2 5.2 0 0 1-5.2-5.2v-6.7a5.2 5.2 0 0 1 5.2-5.2h16.3a5.2 5.2 0 0 1 5.2 5.2zm34-17.6l-11.6 11.5a5.2 5.2 0 0 1-7.3 0l-4.8-4.7a5.3 5.3 0 0 1 0-7.4l11.6-11.5a5.2 5.2 0 0 1 7.3 0l4.8 4.7a5.3 5.3 0 0 1 0 7.4zm6.8-22.6h-6.7a5.3 5.3 0 0 1-5.2-5.2v-16.3a5.2 5.2 0 0 1 5.2-5.2h6.7a5.2 5.2 0 0 1 5.2 5.2v16.3a5.2 5.2 0 0 1-5.2 5.2z"/><circle cx="128" cy="128.6" r="14.5"/></symbol></svg>