<svg xmlns="http://www.w3.org/2000/svg" width="256" height="256" viewBox="0 0 256 256"><circle cx="219.3" cy="190.1" r="29.9" fill="#231f20"/><path fill="#231f20" d="M43.5 97.1c3.5 2.6 14.6 7.2 44.7 1.1a3.9 3.9 0 0 1 4.4 2l11.6 23.4a3.7 3.7 0 0 1-3.5 5.4c-14.8-.1-52-.4-70.3-.1a3.7 3.7 0 0 1-3.8-2.8c-1.4-5.8-2.6-18.7 12.2-29a4.1 4.1 0 0 1 4.7 0zm103.8-13.8l3.3-1.8a4.6 4.6 0 0 1 4.9.2l17.9 12.8a4.2 4.2 0 0 0 3.3.8c3.8-.6 11.7-3.2 13-14.7a4.3 4.3 0 0 0-1.9-4.2l-20.5-13.7a4.5 4.5 0 0 1-1.2-6.1l5.3-8a4.3 4.3 0 0 1 4.8-1.9c9.5 2.2 39.1 7.9 56.7-2.7a4.8 4.8 0 0 1 3.7-.6c1.8.6 4.2 2.1 4.2 6.3 0 0 0 14.8 5.4 23.9s5.1 29 1.4 50.5a4.6 4.6 0 0 1-4.5 3.7c-10 0-39.2.1-73.9.7a4.4 4.4 0 0 1-4.1-2.3l-19.6-37a4.4 4.4 0 0 1 1.8-5.9zm-34.6 9.9l12-1.9c2.1-.5 4.5.3 5.4 1.8l18.1 30.6c1.5 2.3-.7 4.9-4.1 4.9h-14.6a4.7 4.7 0 0 1-4.2-2l-15.4-28.7c-1.2-1.9.2-4.1 2.8-4.7z"/><path fill="#231f20" d="M132.1 47.7l-4.1 4.8a2.3 2.3 0 0 0 .3 3.3l44.1 32.4a5.2 5.2 0 0 0 2.3 1c2.7.3 8.1.2 8.8-7.6a2.2 2.2 0 0 0-1.1-2.1l-47.2-32.3a2.5 2.5 0 0 0-3.1.5zm4.7-4.2l22.8 14.9 11.4-17c2-1.8-1.4-6.4-3.5-8.3l-10.4-7.7c-1.9-1.8-7.1-1.8-8.9.2zM21.226 159.08l22.139 18.576a3.2 3.2 0 0 1 .394 4.508l-12.727 15.168a1.8 1.8 0 0 1-2.536.222L4.289 177.242a1.8 1.8 0 0 1-.222-2.536l12.727-15.168a3.2 3.2 0 0 1 4.508-.394z"/><circle cx="88.2" cy="190.1" r="29.9" fill="#231f20"/><rect width="47.2" height="4.64" x="64.6" y="187.7" fill="#fff" rx=".6" ry=".6"/><rect width="12.6" height="4.64" x="64.3" y="184.5" fill="#fff" rx=".6" ry=".6" transform="rotate(54.6 70.657 186.81)"/><rect width="12.6" height="4.64" x="64.1" y="191" fill="#fff" rx=".6" ry=".6" transform="rotate(-51.7 70.368 193.247)"/><rect width="12.6" height="4.64" x="99.8" y="190.9" fill="#fff" rx=".6" ry=".6" transform="rotate(-125.4 106.11 193.194)"/><rect width="12.6" height="4.64" x="100.1" y="184.3" fill="#fff" rx=".6" ry=".6" transform="rotate(128.3 106.372 186.679)"/><rect width="47.2" height="4.64" x="64.4" y="187.8" fill="#fff" rx=".6" ry=".6" transform="rotate(-52.6 88.038 190.16)"/><rect width="12.6" height="4.64" x="68.5" y="199.8" fill="#fff" rx=".6" ry=".6" transform="rotate(2 75.162 202.13)"/><rect width="12.6" height="4.64" x="73.6" y="204" fill="#fff" rx=".6" ry=".6" transform="rotate(-104.3 79.855 206.27)"/><rect width="12.6" height="4.64" x="95.2" y="175.5" fill="#fff" rx=".6" ry=".6" transform="rotate(-178 101.484 177.833)"/><rect width="12.6" height="4.64" x="90.2" y="171.3" fill="#fff" rx=".6" ry=".6" transform="rotate(75.7 96.5 173.718)"/><rect width="47.2" height="4.64" x="64.3" y="187.6" fill="#fff" rx=".6" ry=".6" transform="rotate(61.3 87.925 189.933)"/><rect width="12.6" height="4.64" x="76" y="170.7" fill="#fff" rx=".6" ry=".6" transform="rotate(115.9 82.293 173.042)"/><rect width="12.6" height="4.64" x="70.2" y="173.6" fill="#fff" rx=".6" ry=".6" transform="rotate(9.6 76.58 176.457)"/><rect width="12.6" height="4.64" x="87.5" y="205" fill="#fff" rx=".6" ry=".6" transform="rotate(-64.1 93.722 207.195)"/><rect width="12.6" height="4.64" x="93.3" y="202" fill="#fff" rx=".6" ry=".6" transform="rotate(-170.4 99.585 204.327)"/><circle cx="87.7" cy="190.1" r="8.9" fill="#fff"/><circle cx="87.7" cy="190.6" r="3.5" fill="#231f20"/><rect width="47.2" height="4.64" x="195.7" y="187.7" fill="#fff" rx=".6" ry=".6"/><rect width="12.6" height="4.64" x="195.4" y="184.5" fill="#fff" rx=".6" ry=".6" transform="rotate(54.6 201.717 186.883)"/><rect width="12.6" height="4.64" x="195.2" y="191" fill="#fff" rx=".6" ry=".6" transform="rotate(-51.7 201.358 193.253)"/><rect width="12.6" height="4.64" x="231" y="190.9" fill="#fff" rx=".6" ry=".6" transform="matrix(-.58 -.82 .82 -.58 217.16 498.5)"/><rect width="12.6" height="4.64" x="231.2" y="184.3" fill="#fff" rx=".6" ry=".6" transform="rotate(128.3 237.475 186.732)"/><rect width="47.2" height="4.64" x="195.5" y="187.8" fill="#fff" rx=".6" ry=".6" transform="rotate(-52.6 219.204 190.159)"/><rect width="12.6" height="4.64" x="199.6" y="199.8" fill="#fff" rx=".6" ry=".6" transform="rotate(2 206.98 202.694)"/><rect width="12.6" height="4.64" x="204.7" y="204" fill="#fff" rx=".6" ry=".6" transform="rotate(-104.3 210.938 206.333)"/><rect width="12.6" height="4.64" x="226.3" y="175.5" fill="#fff" rx=".6" ry=".6" transform="rotate(-178 232.624 177.845)"/><rect width="12.6" height="4.64" x="221.3" y="171.3" fill="#fff" rx=".6" ry=".6" transform="rotate(75.7 227.566 173.725)"/><rect width="47.2" height="4.64" x="195.5" y="187.6" fill="#fff" rx=".6" ry=".6" transform="rotate(61.3 219.058 189.978)"/><rect width="12.6" height="4.64" x="207.1" y="170.7" fill="#fff" rx=".6" ry=".6" transform="rotate(115.9 213.432 173.02)"/><rect width="12.6" height="4.64" x="201.3" y="173.6" fill="#fff" rx=".6" ry=".6" transform="rotate(9.6 207.88 176.225)"/><rect width="12.6" height="4.64" x="218.6" y="205" fill="#fff" rx=".6" ry=".6" transform="rotate(-64.1 224.858 207.257)"/><rect width="12.6" height="4.64" x="224.4" y="202" fill="#fff" rx=".6" ry=".6" transform="rotate(-170.4 230.704 204.344)"/><circle cx="219.3" cy="190.1" r="8.9" fill="#fff"/><circle cx="219.3" cy="190.1" r="3.5" fill="#231f20"/><path fill="#231f20" d="M30.4 142.4h213.4a4.6 4.6 0 0 1 4.6 4.6v6.3a4.6 4.6 0 0 1-6.8 4.1c-6.9-3.6-22.2-6.8-36 1l-.7.4-14 4.5a4.6 4.6 0 0 1-4.7-1.1l-.4-.5a5.1 5.1 0 0 0-3.3-1.3h-48a4.2 4.2 0 0 0-3.6 1.9h-.1a4 4 0 0 1-3.4 1.9l-12.7.5a4.7 4.7 0 0 1-3.5-1.3l-5.1-5.2a4.2 4.2 0 0 0-1.8-1.1c-4.3-1.6-24.2-6.5-37.9 5.7a4.3 4.3 0 0 1-3.2 1.2c-6.2-.2-26.1-1.5-35.5-8.3a4.7 4.7 0 0 1-1.9-3.8v-5a4.6 4.6 0 0 1 4.6-4.5z"/><path fill="#231f20" d="M31.4 160.5l2.4-3.6a3.7 3.7 0 0 1 4.6-1.3l3.2 1.4a3.7 3.7 0 0 1 1.5 5.6l-3.1 4.3a3.7 3.7 0 0 1-5.4.7l-2.5-2.1a3.7 3.7 0 0 1-.7-5zm88.7-96l12.6 13.3a2.8 2.8 0 0 0 3.2.6l3.1-1.7a2.6 2.6 0 0 0 .5-4.2l-14.7-12.6a2.7 2.7 0 0 0-3.4 0l-1.1.9a2.6 2.6 0 0 0-.2 3.7zm-11.3 8.3l8.3 11.5a2.6 2.6 0 0 0 3 1l2.9-.9a2.6 2.6 0 0 0 1.1-4.2l-10-11.3a2.7 2.7 0 0 0-3.4-.5l-1.2.8a2.4 2.4 0 0 0-.7 3.6zm-12.6 6.6l5.6 10.5a2.2 2.2 0 0 0 2.7 1.1l3.4-1.1a2.3 2.3 0 0 0 1.2-3.4l-6.9-10.3a2.4 2.4 0 0 0-2.9-.8l-2 .9a2.3 2.3 0 0 0-1.1 3.1zm-13.5 4.7l3.3 8.7a2.4 2.4 0 0 0 2.8 1.5l3-.5a2.5 2.5 0 0 0 1.8-3.5l-4.4-8.7a2.6 2.6 0 0 0-3-1.3l-1.9.6a2.4 2.4 0 0 0-1.6 3.2zm-13.4 3.2l1.6 7.1a2.5 2.5 0 0 0 2.7 1.9l2.8-.3a2.5 2.5 0 0 0 2.2-3.2l-2.4-7.3a2.4 2.4 0 0 0-3-1.6l-2 .5a2.4 2.4 0 0 0-1.9 2.9zM55 90.9l.8 3.3a2.4 2.4 0 0 0 2.2 2h2.8a2.4 2.4 0 0 0 2.5-3.1L62 89a2.5 2.5 0 0 0-3.1-1.5l-2.2.6a2.5 2.5 0 0 0-1.7 2.8z"/><rect width="222.5" height="6.61" x="25.6" y="132.4" fill="#231f20" rx=".9" ry=".9"/></svg>