<svg xmlns="http://www.w3.org/2000/svg" width="16" height="16" viewBox="0 0 16 16"><circle cx="8.2" cy="8.1" r="7.9" fill="#231f20"/><rect width="12.5" height="1.23" x="1.9" y="7.4" fill="#fff" rx=".4" ry=".4"/><rect width="3.3" height="1.23" x="1.8" y="6.5" fill="#fff" rx=".4" ry=".4" transform="rotate(54.6 3.553 7.122)"/><rect width="3.3" height="1.23" x="1.8" y="8.3" fill="#fff" rx=".4" ry=".4" transform="rotate(-51.7 3.445 8.932)"/><rect width="3.3" height="1.23" x="11.3" y="8.3" fill="#fff" rx=".4" ry=".4" transform="matrix(-.58 -.82 .82 -.58 13.22 24.57)"/><rect width="3.3" height="1.23" x="11.3" y="6.5" fill="#fff" rx=".4" ry=".4" transform="rotate(128.3 13.035 7.118)"/><rect width="12.5" height="1.23" x="1.9" y="7.4" fill="#fff" rx=".4" ry=".4" transform="rotate(-52.4 8.204 8.1)"/><rect width="3.3" height="1.23" x="3" y="10.6" fill="#fff" rx=".4" ry=".4" transform="rotate(2 5.929 11.358)"/><rect width="3.3" height="1.23" x="4.3" y="11.7" fill="#fff" rx=".4" ry=".4" transform="rotate(-104.3 5.987 12.348)"/><rect width="3.3" height="1.23" x="10.1" y="4.2" fill="#fff" rx=".4" ry=".4" transform="rotate(-178 11.737 4.797)"/><rect width="3.3" height="1.23" x="8.7" y="3.1" fill="#fff" rx=".4" ry=".4" transform="rotate(75.7 10.397 3.685)"/><rect width="12.5" height="1.23" x="1.9" y="7.4" fill="#fff" rx=".4" ry=".4" transform="rotate(61.3 8.181 8.035)"/><rect width="3.3" height="1.23" x="5" y="2.9" fill="#fff" rx=".4" ry=".4" transform="rotate(115.9 6.632 3.526)"/><rect width="3.3" height="1.23" x="3.4" y="3.7" fill="#fff" rx=".4" ry=".4" transform="rotate(9.6 5.163 4.363)"/><rect width="3.3" height="1.23" x="8" y="12" fill="#fff" rx=".4" ry=".4" transform="rotate(-64.1 9.668 12.612)"/><rect width="3.3" height="1.23" x="9.5" y="11.2" fill="#fff" rx=".4" ry=".4" transform="rotate(-170.4 11.216 11.848)"/><circle cx="8.2" cy="8.1" r="2.4" fill="#fff"/><circle cx="8.2" cy="8.1" r=".9" fill="#231f20"/></svg>