<svg xmlns="http://www.w3.org/2000/svg" width="32" height="32" viewBox="0 0 32 32"><circle cx="16" cy="16.1" r="15.5" fill="#231f20"/><rect width="24.5" height="2.41" x="3.7" y="14.8" fill="#fff" rx=".4" ry=".4"/><rect width="6.5" height="2.41" x="3.6" y="13.1" fill="#fff" rx=".4" ry=".4" transform="rotate(54.6 6.913 14.343)"/><rect width="6.5" height="2.41" x="3.5" y="16.5" fill="#fff" rx=".4" ry=".4" transform="rotate(-51.7 6.734 17.662)"/><rect width="6.5" height="2.41" x="22" y="16.5" fill="#fff" rx=".4" ry=".4" transform="rotate(-125.4 25.266 17.67)"/><rect width="6.5" height="2.41" x="22.1" y="13.1" fill="#fff" rx=".4" ry=".4" transform="rotate(128.3 25.375 14.27)"/><rect width="24.5" height="2.41" x="3.7" y="14.9" fill="#fff" rx=".4" ry=".4" transform="rotate(-52.6 15.87 16.026)"/><rect width="6.5" height="2.41" x="5.8" y="21.1" fill="#fff" rx=".4" ry=".4" transform="rotate(2 8.993 22.766)"/><rect width="6.5" height="2.41" x="8.4" y="23.2" fill="#fff" rx=".4" ry=".4" transform="rotate(-104.3 11.64 24.475)"/><rect width="6.5" height="2.41" x="19.6" y="8.5" fill="#fff" rx=".4" ry=".4" transform="rotate(-178 22.876 9.704)"/><rect width="6.5" height="2.41" x="17" y="6.3" fill="#fff" rx=".4" ry=".4" transform="rotate(75.7 20.244 7.592)"/><rect width="24.5" height="2.41" x="3.6" y="14.8" fill="#fff" rx=".4" ry=".4" transform="rotate(61.3 15.875 16.016)"/><rect width="6.5" height="2.41" x="9.7" y="6" fill="#fff" rx=".4" ry=".4" transform="rotate(115.9 12.957 7.207)"/><rect width="6.5" height="2.41" x="6.6" y="7.5" fill="#fff" rx=".4" ry=".4" transform="rotate(9.6 9.732 8.777)"/><rect width="6.5" height="2.41" x="15.6" y="23.7" fill="#fff" rx=".4" ry=".4" transform="rotate(-64.1 18.857 24.924)"/><rect width="6.5" height="2.41" x="18.6" y="22.2" fill="#fff" rx=".4" ry=".4" transform="rotate(-170.4 21.908 23.437)"/><circle cx="16" cy="16.1" r="4.6" fill="#fff"/><circle cx="16" cy="16.1" r="1.8" fill="#231f20"/></svg>