<svg xmlns="http://www.w3.org/2000/svg" width="64" height="64" viewBox="0 0 64 64"><circle cx="55" cy="51.8" r="7.4" fill="#231f20"/><path fill="#231f20" d="M11.2 28.7c.9.6 3.6 1.8 11.1.2a.9.9 0 0 1 1.1.5l2.9 5.8a1 1 0 0 1-.9 1.4c-3.6 0-12.9-.1-17.5 0a1 1 0 0 1-.9-.7c-.4-1.5-.7-4.7 3-7.2a.9.9 0 0 1 1.2 0zM37 25.2l.9-.4a1.3 1.3 0 0 1 1.2 0l4.4 3.2a1 1 0 0 0 .9.2c.9-.1 2.9-.8 3.2-3.7a1 1 0 0 0-.5-1L42 20.1a1.1 1.1 0 0 1-.3-1.5l1.3-2a1.2 1.2 0 0 1 1.2-.5c2.4.6 9.7 2 14.1-.7a1.6 1.6 0 0 1 1-.1 1.4 1.4 0 0 1 1 1.5s0 3.7 1.4 6 1.2 7.2.3 12.6a1.2 1.2 0 0 1-1.1.9c-2.5 0-9.8 0-18.4.2a1.1 1.1 0 0 1-1-.6l-4.9-9.2a1.1 1.1 0 0 1 .4-1.5zm-8.6 2.5l3-.5a1.5 1.5 0 0 1 1.4.5l4.5 7.6c.3.5-.2 1.2-1.1 1.2h-3.6c-.4 0-.9-.2-1-.5l-3.9-7.1a.8.8 0 0 1 .7-1.2z"/><path fill="#231f20" d="M33.2 16.3l-1 1.2a.6.6 0 0 0 .1.9l11 8 .6.3a1.9 1.9 0 0 0 2.2-1.9.5.5 0 0 0-.3-.5L34 16.2a.8.8 0 0 0-.8.1zm1.2-1l5.7 3.7 2.8-4.2c.5-.5-.3-1.6-.8-2.1l-2.6-1.9a2 2 0 0 0-2.2.1zM7.125 45.33l2.605 2.185a2.7 2.7 0 0 1 .332 3.804l-1.22 1.455a1.6 1.6 0 0 1-2.255.197l-4.29-3.6a1.5 1.5 0 0 1-.197-2.253l1.221-1.456a2.7 2.7 0 0 1 3.804-.333z"/><circle cx="22.3" cy="51.8" r="7.4" fill="#231f20"/><rect width="11.8" height="1.16" x="16.4" y="51.2" fill="#fff" rx=".4" ry=".4"/><rect width="3.1" height="1.16" x="16.4" y="50.4" fill="#fff" rx=".4" ry=".4" transform="rotate(54.6 17.963 50.965)"/><rect width="3.1" height="1.16" x="16.3" y="52" fill="#fff" rx=".4" ry=".4" transform="rotate(-51.7 17.838 52.604)"/><rect width="3.1" height="1.16" x="25.2" y="52" fill="#fff" rx=".4" ry=".4" transform="rotate(-125.4 26.771 52.605)"/><rect width="3.1" height="1.16" x="25.3" y="50.4" fill="#fff" rx=".4" ry=".4" transform="rotate(128.3 26.852 50.978)"/><rect width="11.8" height="1.16" x="16.4" y="51.2" fill="#fff" rx=".4" ry=".4" transform="rotate(-52.6 22.244 51.778)"/><rect width="3.1" height="1.16" x="17.4" y="54.2" fill="#fff" rx=".4" ry=".4" transform="rotate(2 18.137 54.125)"/><rect width="3.1" height="1.16" x="18.7" y="55.3" fill="#fff" rx=".4" ry=".4" transform="rotate(-104.3 20.208 55.829)"/><rect width="3.1" height="1.16" x="24.1" y="48.2" fill="#fff" rx=".4" ry=".4" transform="rotate(-178 25.609 48.768)"/><rect width="3.1" height="1.16" x="22.8" y="47.1" fill="#fff" rx=".4" ry=".4" transform="rotate(75.7 24.386 47.716)"/><rect width="11.8" height="1.16" x="16.4" y="51.2" fill="#fff" rx=".4" ry=".4" transform="rotate(61.3 22.256 51.795)"/><rect width="3.1" height="1.16" x="19.3" y="47" fill="#fff" rx=".4" ry=".4" transform="rotate(115.9 20.873 47.59)"/><rect width="3.1" height="1.16" x="17.8" y="47.7" fill="#fff" rx=".4" ry=".4" transform="rotate(9.6 19.631 48.121)"/><rect width="3.1" height="1.16" x="22.1" y="55.5" fill="#fff" rx=".4" ry=".4" transform="rotate(-64.1 23.697 56.079)"/><rect width="3.1" height="1.16" x="23.6" y="54.8" fill="#fff" rx=".4" ry=".4" transform="rotate(-170.4 25.14 55.341)"/><circle cx="22.2" cy="51.8" r="2.2" fill="#fff"/><circle cx="22.2" cy="51.9" r=".9" fill="#231f20"/><rect width="11.8" height="1.16" x="49.1" y="51.2" fill="#fff" rx=".4" ry=".4"/><rect width="3.1" height="1.16" x="49" y="50.4" fill="#fff" rx=".4" ry=".4" transform="rotate(54.6 50.58 50.936)"/><rect width="3.1" height="1.16" x="49" y="52" fill="#fff" rx=".4" ry=".4" transform="rotate(-51.7 50.457 52.607)"/><rect width="3.1" height="1.16" x="57.9" y="52" fill="#fff" rx=".4" ry=".4" transform="rotate(-125.4 59.436 52.588)"/><rect width="3.1" height="1.16" x="57.9" y="50.4" fill="#fff" rx=".4" ry=".4" transform="rotate(128.3 59.453 50.968)"/><rect width="11.8" height="1.16" x="49" y="51.2" fill="#fff" rx=".4" ry=".4" transform="rotate(-52.6 54.947 51.829)"/><rect width="3.1" height="1.16" x="50.1" y="54.2" fill="#fff" rx=".4" ry=".4" transform="rotate(2 52.561 56.39)"/><rect width="3.1" height="1.16" x="51.3" y="55.3" fill="#fff" rx=".4" ry=".4" transform="rotate(-104.3 52.874 55.865)"/><rect width="3.1" height="1.16" x="56.7" y="48.2" fill="#fff" rx=".4" ry=".4" transform="rotate(-178 58.268 48.748)"/><rect width="3.1" height="1.16" x="55.4" y="47.1" fill="#fff" rx=".4" ry=".4" transform="rotate(75.7 57.018 47.744)"/><rect width="11.8" height="1.16" x="49" y="51.2" fill="#fff" rx=".4" ry=".4" transform="rotate(61.3 54.838 51.755)"/><rect width="3.1" height="1.16" x="51.9" y="47" fill="#fff" rx=".4" ry=".4" transform="rotate(115.9 53.527 47.571)"/><rect width="3.1" height="1.16" x="50.5" y="47.7" fill="#fff" rx=".4" ry=".4" transform="rotate(9.6 52.035 48.398)"/><rect width="3.1" height="1.16" x="54.8" y="55.5" fill="#fff" rx=".4" ry=".4" transform="rotate(-64.1 56.376 56.084)"/><rect width="3.1" height="1.16" x="56.2" y="54.8" fill="#fff" rx=".4" ry=".4" transform="rotate(-170.4 57.772 55.37)"/><circle cx="55" cy="51.8" r="2.2" fill="#fff"/><circle cx="55" cy="51.8" r=".9" fill="#231f20"/><path fill="#231f20" d="M7.9 39.9H61a1.2 1.2 0 0 1 1.2 1.2v1.6a1.2 1.2 0 0 1-1.7 1 9.9 9.9 0 0 0-8.9.2h-.2L47.9 45a1.1 1.1 0 0 1-1.2-.2v-.2a1.1 1.1 0 0 0-.8-.3h-12a1 1 0 0 0-.8.5H33a1 1 0 0 1-.8.5h-3.3a1.1 1.1 0 0 1-.8-.3l-1.3-1.3-.5-.3c-1-.4-6-1.6-9.4 1.4a.8.8 0 0 1-.8.3c-1.5 0-6.5-.3-8.8-2a1.4 1.4 0 0 1-.5-1v-1a1.1 1.1 0 0 1 1.1-1.2z"/><path fill="#231f20" d="M8.2 44.4l.6-.9a.9.9 0 0 1 1.1-.3l.8.4a1 1 0 0 1 .4 1.4l-.8 1a.8.8 0 0 1-1.3.2l-.6-.5a.9.9 0 0 1-.2-1.3zm22.1-23.9l3.1 3.4a.8.8 0 0 0 .8.1l.8-.4a.7.7 0 0 0 .1-1.1l-3.7-3.1a.6.6 0 0 0-.8 0l-.3.2a.6.6 0 0 0 0 .9zm-2.9 2.1l2.1 2.9a.8.8 0 0 0 .8.2l.7-.2c.4-.2.6-.7.3-1l-2.5-2.9a.9.9 0 0 0-.9-.1l-.3.2a.7.7 0 0 0-.2.9zm-3.1 1.7l1.4 2.6a.6.6 0 0 0 .7.2l.8-.2a.6.6 0 0 0 .3-.9l-1.7-2.5a.4.4 0 0 0-.7-.2l-.5.2a.6.6 0 0 0-.3.8zM21 25.4l.8 2.2a.7.7 0 0 0 .7.4l.7-.2a.7.7 0 0 0 .5-.8l-1.1-2.2a.7.7 0 0 0-.8-.3h-.4a.5.5 0 0 0-.4.9zm-3.4.8L18 28a.8.8 0 0 0 .7.5h.7a.6.6 0 0 0 .5-.8l-.6-1.8a.6.6 0 0 0-.7-.4h-.5a.8.8 0 0 0-.5.7zm-3.5.9v.8a.6.6 0 0 0 .6.5h.7c.4 0 .8-.4.6-.8l-.3-1.1c-.1-.3-.4-.4-.8-.3h-.5a.6.6 0 0 0-.3.9z"/><rect width="55.4" height="1.64" x="6.7" y="37.4" fill="#231f20" rx=".6" ry=".6"/></svg>